<svg class="c-logo__svg" id="Layer_1" data-name="Layer 1" xmlns="http://www.w3.org/2000/svg" xmlns:xlink="http://www.w3.org/1999/xlink" viewBox="0 0 549.714 240.039">
        <defs>
          <clipPath id="clip-path" transform="translate(-16.703 -4.322)">
            <path id="letter" d="M551.551,148.572a13.838,13.838,0,0,1-3.7.489,15.844,15.844,0,0,0-4.716.78,15.269,15.269,0,0,1-1.546.317c-1.826.359-3.719.492-5.518.95a35.561,35.561,0,0,0-6.634,2.2c-2.122,1.017-4.256,2.023-6.428,2.978a78.076,78.076,0,0,0-7.151,3.626,41.344,41.344,0,0,1-4.362,2.012,14.906,14.906,0,0,1-4.731,1.406,2.809,2.809,0,0,0-.736.241,13.386,13.386,0,0,1-4.369.948,7.061,7.061,0,0,0-1.031.222,6.076,6.076,0,0,1-1.054.132q-1.213,0-2.424-.075a1.187,1.187,0,0,1-.848-.453,1.073,1.073,0,0,1-.119-1.357,2.822,2.822,0,0,0-.248-3.3.585.585,0,0,0-.429-.174,2.4,2.4,0,0,0-2.057,1.121,7.89,7.89,0,0,0-.722,1.723,4.017,4.017,0,0,1-.74,1.5,2.461,2.461,0,0,0-.584,1.113,22.454,22.454,0,0,1-.6,2.984,30.142,30.142,0,0,0-.109,5.464,3.5,3.5,0,0,0,.278.982,8.3,8.3,0,0,0,1.565,2.561,7.386,7.386,0,0,0,3.107,2.176,34.978,34.978,0,0,1,3.8,1.526,1.7,1.7,0,0,0,.747.209,4.454,4.454,0,0,1,1.735.45,8.679,8.679,0,0,0,4.154.667c.267-.026.54-.017.811-.018a7.2,7.2,0,0,0,4.081-.752,1.749,1.749,0,0,1,.489-.168,20.48,20.48,0,0,0,5.048-1.891,1.181,1.181,0,0,1,.24-.091c2.565-.832,4.842-2.051,7.283-3.05a2.7,2.7,0,0,0,.98-.677,7.441,7.441,0,0,1,2.315-1.674,25.986,25.986,0,0,0,4.6-3.393,7.524,7.524,0,0,1,1.322-.99,2.912,2.912,0,0,0,1.426-1.427,4.929,4.929,0,0,1,1.411-1.714,1.522,1.522,0,0,0,.473-.71,9.164,9.164,0,0,1,1.455-2.592c.627-.883.94-1.885,1.591-2.771a2.762,2.762,0,0,1,.282-.345,4.67,4.67,0,0,0,1.4-2.165.855.855,0,0,1,.37-.527,3.8,3.8,0,0,0,1.314-1.5,3.284,3.284,0,0,1,1.238-1.047,17.976,17.976,0,0,0,3.219-2.153,9.179,9.179,0,0,1,3.558-2.026c.325-.492.616-.909.868-1.338.053-.089-.019-.231-.075-.337A.306.306,0,0,0,551.551,148.572Z" style="fill: none"/>
          </clipPath>
          <clipPath id="clip-path-2" transform="translate(-16.703 -4.322)">
            <path id="letter-2" data-name="letter" d="M514.581,142.191a.992.992,0,0,0,.7-.092,17.506,17.506,0,0,1,4.176-1.824,5.767,5.767,0,0,0,1.831-.843,1.991,1.991,0,0,1,1.456-.375,1.839,1.839,0,0,0,1.747-.795,6.138,6.138,0,0,0,1.249-2.646,1.324,1.324,0,0,1,.638-1.079,1.359,1.359,0,0,0,.7-1.048,2.793,2.793,0,0,1,.778-1.707,2.738,2.738,0,0,0,.632-2.124c-.022-.874.075-1.75.12-2.625a4.425,4.425,0,0,0,.516-2.578,5.957,5.957,0,0,1,.226-1.2c.262-.993.575-1.978.813-2.973a11.329,11.329,0,0,0,.315-2.009,4.536,4.536,0,0,1,.588-2.763,1.3,1.3,0,0,0,.133-.793,3.5,3.5,0,0,1,.356-1.58c.481-1.011.817-2.06,1.277-3.077a3.5,3.5,0,0,0,.372-1.584,5.288,5.288,0,0,1,.7-2.763,3.911,3.911,0,0,0,.542-1.56,4.505,4.505,0,0,1,.686-2.338,5.087,5.087,0,0,1,.539-2.376c.147-.311.04-.725.274-.971a2.933,2.933,0,0,0,.653-2.327,6.738,6.738,0,0,1,.461-3.2,2.857,2.857,0,0,0,.152-1.154c0-.523.017-.794,0-1.063a3.572,3.572,0,0,0-1.5-2.724A11.427,11.427,0,0,1,532.7,85.17a2.809,2.809,0,0,0-.5-.478,4.681,4.681,0,0,1-1.743-3.118,1.95,1.95,0,0,0-.943-1.417c-1.716-1.248-1.325-1.164-3.783-1.071a3.152,3.152,0,0,0-1.674.59,3.83,3.83,0,0,0-1.445,1.907,4.671,4.671,0,0,1-.214.786,2.043,2.043,0,0,0-.274,1.773,2.594,2.594,0,0,1-.156,1.8,7.671,7.671,0,0,1-1.455,2.6,1.218,1.218,0,0,0-.214.369.214.214,0,0,0,.03.165,1.083,1.083,0,0,0,.45-.028c.574-.323,1.1-.692,1.69-1,.647-.339.539-1,1.114-1.356a8.453,8.453,0,0,1,.832-.5.77.77,0,0,1,.5.008c.132.051.287.2.278.3a7.116,7.116,0,0,1-.568,2.569,5.722,5.722,0,0,0-.928,2.926c-.44,1.232-.477,2.532-1.245,3.711a5.884,5.884,0,0,0-.873,2.536,12.424,12.424,0,0,1-.36,1.592,13.815,13.815,0,0,1-.678,2.362,7.185,7.185,0,0,0-.2,2.007c-.1.665-.682,1.235-.656,1.946a8.392,8.392,0,0,1-.207,1.811,2.488,2.488,0,0,1-.395,1.16,3.688,3.688,0,0,0-.775,2.722,2.993,2.993,0,0,1-.029.808,9.126,9.126,0,0,0-.391,3.8,11.053,11.053,0,0,0-.218,3.027,4.624,4.624,0,0,1-.483,2.378,2.645,2.645,0,0,0-.227,1.392c-.018,1.688,0,3.375.01,5.063q.008,1.317.029,2.634a2.914,2.914,0,0,0,.354,1.586,2.111,2.111,0,0,1-.214,2.521,3.878,3.878,0,0,0-.893,2.708,2.409,2.409,0,0,1-1.053,2.224,2.089,2.089,0,0,0-.839,1.657A.635.635,0,0,0,514.581,142.191Z" style="fill: none"/>
          </clipPath>
          <clipPath id="clip-path-3" transform="translate(-16.703 -4.322)">
            <path id="letter-3" data-name="letter" d="M492.978,114.586a1.109,1.109,0,0,0-.93-.049,11.672,11.672,0,0,1-1.358.642,51.515,51.515,0,0,1-7.412,1.863,7.349,7.349,0,0,1-3.2-.144,12.123,12.123,0,0,1-1.521-2.369,18.232,18.232,0,0,0-1.752-2.945,2.99,2.99,0,0,0-1.555-1.356,2.093,2.093,0,0,1-.791-.541c-1.7-1.969-3.952-3.707-4.545-6.136-.015-.064-.081-.12-.123-.18-.566-.8-.207-1.414.631-1.965.61-.4,1.176-.837,1.777-1.246a3.661,3.661,0,0,1,.855-.479A3.818,3.818,0,0,0,474.5,98.8a8.362,8.362,0,0,1,1.189-.813c1.357-.882,2.752-1.734,4.061-2.655a8.431,8.431,0,0,1,1.931-1.364,2.717,2.717,0,0,0,1.419-1.438,4.989,4.989,0,0,1,1.619-2.08,1.038,1.038,0,0,0,.463-.92c.007-1.15,0-2.3.022-3.449a3.053,3.053,0,0,1,.139-1.405c.664-1.226.169-2.562.746-3.788.078-.166-.086-.391-.116-.591a2.871,2.871,0,0,1-.041-.6c.027-.417.395-.727.981-.837.261-.049.534-.063.794-.114a.41.41,0,0,0,.308-.65,1.867,1.867,0,0,0-1.588-.967,2.478,2.478,0,0,0-1.512.324c-.8.433-1.561.915-2.407,1.29s-1.823.56-2.683.947a26.612,26.612,0,0,0-2.756,1.273,6.394,6.394,0,0,1-1.146.533,21.354,21.354,0,0,0-4.187,2.2,11.469,11.469,0,0,1-3.5,1.843,4.033,4.033,0,0,0-.666.342,23.136,23.136,0,0,0-3.91,2.488c-.6.414-1.263.754-1.891,1.129a19.36,19.36,0,0,0-3.808,2.54,44.689,44.689,0,0,1-3.627,3,3.887,3.887,0,0,1-1.064.616,3.594,3.594,0,0,0-1.516,1.123c-.442.507-.829,1.045-1.319,1.524-.545.534-1.177,1.019-1.775,1.523a10.015,10.015,0,0,0-1.075.9c-.548.616-.952,1.31-1.552,1.892s-1.465,1.016-2.047,1.607a34.21,34.21,0,0,0-3.968,4.582,24.083,24.083,0,0,1-3.769,4.662.806.806,0,0,0-.317.54c.054.782-.665,1.393-.8,2.074.123.729.8,1.293.694,2a2.563,2.563,0,0,0,1.054,2.22c.435.42.625.986,1.077,1.392a12.166,12.166,0,0,0,1.629,1.015c.134.084.207.221.33.32a3.066,3.066,0,0,0,2.943.436,8.42,8.42,0,0,0,2.712-1.63,57.917,57.917,0,0,0,5.235-5.636,5.169,5.169,0,0,1,1.373-1.24,20.168,20.168,0,0,0,2.511-1.823c1.264-1.142,2.435-2.344,3.61-3.54a16.956,16.956,0,0,1,4.538-3.43.8.8,0,0,1,.912.195,1.529,1.529,0,0,1,.548,1.321,2.929,2.929,0,0,0,.02,1.608,18.918,18.918,0,0,0,.86,1.917,3.7,3.7,0,0,1,.523,1.351,2.137,2.137,0,0,0,.283.777c.527.932,1.032,1.875,1.634,2.78,1.085,1.631,2.242,3.235,3.353,4.856a6.641,6.641,0,0,0,2.41,2.132,11.079,11.079,0,0,1,2.928,2.088,1.518,1.518,0,0,0,.855.445,8.558,8.558,0,0,1,2.5.738,6.038,6.038,0,0,0,2.9.247,2.332,2.332,0,0,0,1.25-.73,4.229,4.229,0,0,1,.82-.515,3.2,3.2,0,0,0,1.865-2.125,11.161,11.161,0,0,1,.848-2.34,9.44,9.44,0,0,1,3.09-3.754A8.267,8.267,0,0,0,492.978,114.586Z" style="fill: none"/>
          </clipPath>
          <clipPath id="clip-path-4" transform="translate(-16.703 -4.322)">
            <path id="letter-4" data-name="letter" d="M362.078,138.908a1.674,1.674,0,0,0-.272-.774,10.908,10.908,0,0,0-2.3-2.969,2.684,2.684,0,0,0-.8-.53c-1.017-.433-2.075-.809-3.039-1.316a3.613,3.613,0,0,0-1.036-.2c-.7-.108-1.41-.2-2.113-.312-.882-.137-1.761-.288-2.644-.427a3.245,3.245,0,0,0-1.594.071,6.222,6.222,0,0,1-2.639.218,3.512,3.512,0,0,0-1.315.137,35.769,35.769,0,0,0-6.684,2.6,16.985,16.985,0,0,1-2.72,1.319,8.234,8.234,0,0,0-1.952,1.077,56.519,56.519,0,0,1-6.039,3.38.55.55,0,0,1-.641-.229,1.135,1.135,0,0,1,.027-1.357,3.073,3.073,0,0,0,.774-1.914,1.723,1.723,0,0,1,.977-1.595,1.694,1.694,0,0,0,.81-1.25,6.233,6.233,0,0,1,1.64-2.719,2,2,0,0,0-.716-.013,17.2,17.2,0,0,1-3.006.891,2,2,0,0,0-1.4.9,7.62,7.62,0,0,1-1.37,1.495,11.327,11.327,0,0,0-1.823,2,7.041,7.041,0,0,1-2.415,2.4,2.425,2.425,0,0,0-.5.476c-1.17,1.2-2.359,2.389-3.5,3.6a4.743,4.743,0,0,0-1.012,1.426c-.367.964-1.161,1.834-1.121,2.894a1.233,1.233,0,0,1-.362.748,3.183,3.183,0,0,0-.919,2.287c.014.255-.181.516-.269.777a7.439,7.439,0,0,0-.7,3.374,1.931,1.931,0,0,1-.081.807,7.481,7.481,0,0,0,.273,3.592c.136.732.3,1.461.406,2.2a3.867,3.867,0,0,0,1.9,3.226,6.024,6.024,0,0,1,.893.747,11.657,11.657,0,0,1,2.155.137,5.673,5.673,0,0,1,2.707,1.245,3.507,3.507,0,0,0,1.7.963,5.336,5.336,0,0,1,2.463-1.485,3.7,3.7,0,0,0,1.746-1.223c.42-.6.9-1.171,1.36-1.75a10.851,10.851,0,0,1,1.151-1.362c1.056-.953,1.36-2.195,2.274-3.2a8.374,8.374,0,0,1,1.417-2.612,5.236,5.236,0,0,0,2.007-2.561c.067-.12.224-.21.33-.319.639-.655,1.263-1.318,1.917-1.963a2.46,2.46,0,0,0,.763-1.274,3.51,3.51,0,0,1,1.373-1.942c.978-.794,1.991-1.564,2.971-2.357a7.991,7.991,0,0,0,1.2-1.085,6.773,6.773,0,0,1,2.744-1.889c.944-.391,1.913-.748,2.863-1.131a4.687,4.687,0,0,1,1.143-.494,5.886,5.886,0,0,0,2.229-.682,9.848,9.848,0,0,1,2.52-.7,2.62,2.62,0,0,1,.8.022c.821.08,1.289.56,1.083,1.154-.293.845-.615,1.685-.953,2.521a42.84,42.84,0,0,1-3.347,5.953,3.384,3.384,0,0,1-.58.682,26.5,26.5,0,0,0-1.888,2.217,2.448,2.448,0,0,0-.747,1.48,1.242,1.242,0,0,1-.41.724c-.429.431-.97.8-1.378,1.241a22.441,22.441,0,0,0-2.021,2.379c-.589.85-1.479,1.537-2.078,2.364a4.769,4.769,0,0,1-1.824,1.455c-.525.261-1.039.536-1.558.805-1.125.583-1.141,1.075-.048,1.726.211.125.443.231.66.352a1.011,1.011,0,0,1,.577.872,3.022,3.022,0,0,1,.016.608,3.028,3.028,0,0,0,.808,2.3,3.085,3.085,0,0,0,1.919,1.025,1.248,1.248,0,0,0,.967-.258c.469-.568.936-1.137,1.371-1.719.045-.06-.109-.221-.206-.315a.338.338,0,0,0-.256-.022c-.5.251-.991.514-1.5.781-.369-.182-.672-.323-.961-.478-.319-.17-.426-.512-.247-.712.451-.5.908-1,1.364-1.494a.605.605,0,0,1,.71-.009c.3.334.568.681.88,1.007a1.124,1.124,0,0,0,.97.22,4.807,4.807,0,0,0,1.971-1.035,6.811,6.811,0,0,1,1.96-1.37,3.967,3.967,0,0,0,1.748-1.513,9.923,9.923,0,0,1,1.6-1.605,9.54,9.54,0,0,0,1.17-2.021,1.727,1.727,0,0,1,.49-.48,2.529,2.529,0,0,0,.846-1.017,2.4,2.4,0,0,1,.751-1.065c.93-.6,1.26-1.467,1.915-2.185a5.38,5.38,0,0,0,1.355-2.4,7.156,7.156,0,0,1,.751-1.728,7.509,7.509,0,0,0,1.181-3.91,2.745,2.745,0,0,1,.236-.979,5.766,5.766,0,0,1,.482-1.154,3.3,3.3,0,0,0,.208-2.584A10.333,10.333,0,0,1,362.078,138.908Z" style="fill: none"/>
          </clipPath>
          <clipPath id="clip-path-5" transform="translate(-16.703 -4.322)">
            <path id="letter-5" data-name="letter" d="M378.063,75.047a1.11,1.11,0,0,0-.128-.6c-.239-.508-.51-1.008-.774-1.509a2.079,2.079,0,0,0-1.872-.992,2.8,2.8,0,0,0-.8,0,7.563,7.563,0,0,1-2.66.078,21.313,21.313,0,0,0-2.464.036c-.737.5-1.5.978-2.191,1.5a34,34,0,0,1-4.8,2.92c-2.278,1.193-4.738,2.189-7.085,3.31a33.752,33.752,0,0,1-3.95,1.3,13.544,13.544,0,0,1-4.369.965,5.776,5.776,0,0,0-1.3.258A15.134,15.134,0,0,1,339,82.319a3.428,3.428,0,0,1-.992-.3c-.49-.292-.864-.7-1.37-.967-.578-.307-1.265-.5-1.869-.78A5.484,5.484,0,0,1,334,79.7a39.915,39.915,0,0,1-3.681-3.472c-.689-.618-1.321-1.279-2.045-1.881a8.007,8.007,0,0,1-1.042-.925,9.919,9.919,0,0,0-4.9-2.73c-1.663-.5-3.44-.79-5.172-1.159a2.076,2.076,0,0,0-.8-.039,17.924,17.924,0,0,0-2.812.668,28.356,28.356,0,0,0-5.718,3.341c-.593.4-1.133.862-1.758,1.25a48.376,48.376,0,0,0-4.426,3.252,89.383,89.383,0,0,1-7.369,5.629c-1.233.785-2.369,1.66-3.5,2.531-.548.424-.8,1.061-1.744,1.183a1.018,1.018,0,0,0-.561.412,4.3,4.3,0,0,1-1.258,1.044c-1.547.92-2.754,2.131-4.449,2.925a15.36,15.36,0,0,1-3.846,2.518,3.562,3.562,0,0,0-.81.536,16.912,16.912,0,0,1-3.146,2.2,15.131,15.131,0,0,1-4.284,2.045,2.146,2.146,0,0,0-.878.453,11.2,11.2,0,0,1-4.98,2.32,3.727,3.727,0,0,0-1.207.417A7.042,7.042,0,0,1,261,103.234c-1.121.259-2.182.625-3.285.905a28.229,28.229,0,0,1-4.947.938,10.092,10.092,0,0,1-4.906-.821,1.383,1.383,0,0,1-.818-.775,7.682,7.682,0,0,1-.669-2.159c-.016-.864-.675-1.532-.882-2.319a1.383,1.383,0,0,1-.034-.2,13.435,13.435,0,0,0-.425-2.405,7.832,7.832,0,0,0-.576-2.369c-.126-.2.053-.526.149-.781a.707.707,0,0,0-.351-.917,1.63,1.63,0,0,1-.943-1.976,2.867,2.867,0,0,0-.227-1.793,3.373,3.373,0,0,1-.352-1.182,17.359,17.359,0,0,1,.212-2.833,2.124,2.124,0,0,1,.71-1.289c1.175-.928,1.854-2.163,3.335-2.906a7.425,7.425,0,0,0,1.472-1.161.257.257,0,0,0-.047-.317.7.7,0,0,0-.482-.037,7.769,7.769,0,0,0-.854.488,1.231,1.231,0,0,1-1.24.1,2.451,2.451,0,0,0-2.259-.033,3.387,3.387,0,0,0-1.458,1.127c-.7.861-1.689,1.591-2.343,2.465a29.979,29.979,0,0,0-1.559,2.791,5.786,5.786,0,0,0-.708,1.729,11.734,11.734,0,0,0-.739,3.164c.014.245-.262.495-.368.752a5.271,5.271,0,0,0-.571,1.552c-.046.746-.244,1.479-.266,2.216a10.153,10.153,0,0,0,.22,3.029,11.775,11.775,0,0,1,.565,4.4,1.427,1.427,0,0,0,.14.8,4.866,4.866,0,0,1,.35,2.2,2.677,2.677,0,0,0,.193,1.194,14.364,14.364,0,0,0,1.436,2.619,22.286,22.286,0,0,1,1.381,1.972,7.587,7.587,0,0,0,1.877,1.969c1.1.8,2.168,1.623,3.291,2.4a11.4,11.4,0,0,0,1.732.959c1.153.526,2.321,1.038,3.518,1.5,1.277.5,2.605.924,3.891,1.41a8.237,8.237,0,0,0,2.867.488c2.157.025,4.312.049,6.47-.032a10.5,10.5,0,0,0,2.652-.295,4.493,4.493,0,0,1,1.575-.234,6.09,6.09,0,0,0,2.275-.489c2.029-.555,3.935-1.327,5.985-1.841a4.127,4.127,0,0,0,1.409-.564,6.533,6.533,0,0,1,2.629-1.348,4.769,4.769,0,0,0,1.105-.575c.519-.27,1.024-.558,1.568-.794a33.728,33.728,0,0,0,5.422-3,27.513,27.513,0,0,1,4.426-2.649,8.628,8.628,0,0,0,1.446-.91,17.667,17.667,0,0,1,3.051-1.988c1.29-.557,1.943-1.587,3.035-2.29.069-.044.133-.092.2-.134q2.637-1.581,5.278-3.161a6.473,6.473,0,0,0,.867-.477,48.493,48.493,0,0,1,4.186-2.866c.858-.592,1.757-1.156,2.558-1.789.929-.733,1.761-1.534,2.653-2.293.95-.809,1.941-1.592,2.88-2.408.87-.756,2.177-1.214,2.68-2.22.027-.054.137-.083.2-.128.74-.49,1.473-.986,2.221-1.469a1.9,1.9,0,0,0,.735-.83,2.085,2.085,0,0,1,.389-.523,1.405,1.405,0,0,1,1.468-.1,3.064,3.064,0,0,1,.388.277c1.315,1.277,2.565,2.588,3.723,3.949a11,11,0,0,0,1.209,1.078,3.7,3.7,0,0,1,.7.6,11.427,11.427,0,0,0,3.41,2.838c1.471,1,3.335,1.6,4.846,2.57a2.081,2.081,0,0,0,.482.177c.83.263,1.644.564,2.5.775,1.193.3,2.415.521,3.625.776,2.671-.189,5.4.292,8.031-.409.33-.088.723-.036,1.071-.1a10.627,10.627,0,0,0,4.635-1.529,4.122,4.122,0,0,1,1.175-.473c.5-.157,1.015-.28,1.528-.406.74-.182,1.279-.5,1.383-1.117a2,2,0,0,1,1.329-1.442,3.5,3.5,0,0,0,1.039-.642,5.24,5.24,0,0,1,2.111-1.212c.587-.2,1.035-.53,1.1-1.07a2.185,2.185,0,0,1,.966-1.395,14.635,14.635,0,0,1,3.295-2.057,6.514,6.514,0,0,0,2-1.339,1.257,1.257,0,0,0,.493-1.118,1.666,1.666,0,0,1,.351-1.358,1.528,1.528,0,0,0,.217-.778c.056-.607.079-1.215.1-1.823C378.157,78.018,377.86,76.534,378.063,75.047Z" style="fill: none"/>
          </clipPath>
          <clipPath id="clip-path-6" transform="translate(-16.703 -4.322)">
            <path id="letter-6" data-name="letter" d="M171.609,153.131a6.711,6.711,0,0,1-.469-2.586,1.35,1.35,0,0,0-.273-.768c-.643-.813-1.331-1.6-2.015-2.4a3.255,3.255,0,0,0-1.838-1.13.873.873,0,0,1-.531-.413,4.514,4.514,0,0,1-.648-1.738,4.238,4.238,0,0,0-.986-2.492,3,3,0,0,1-.423-2.561,3.584,3.584,0,0,1,.7-1.309c.476-.624.262-1.16-.207-1.7a.387.387,0,0,0-.235-.074.225.225,0,0,0-.169.087,1.613,1.613,0,0,0-.073.392c-.059,1.075-.826,1.75-2.126,2.126a2.866,2.866,0,0,0-.5.141,1.619,1.619,0,0,0-.584.4,3.751,3.751,0,0,0-.781,1.713,6.225,6.225,0,0,0,1,4.328,4.112,4.112,0,0,1,1.089,2.673,1.448,1.448,0,0,0,.293.772,2.5,2.5,0,0,1,.333,1.583,6.413,6.413,0,0,0-.035,1.418,3.661,3.661,0,0,1-.394,2.773,1.9,1.9,0,0,0-.146,1,41.439,41.439,0,0,1-.237,4.245,24.809,24.809,0,0,1-.619,4.414,1.438,1.438,0,0,0-.032.606,9.71,9.71,0,0,1-.334,3.226,14.832,14.832,0,0,0-.329,2.822c-.031.675-.028,1.351-.076,2.025a2.6,2.6,0,0,1-.214.99,4.61,4.61,0,0,0-.366,2,4.554,4.554,0,0,1-.226,1.6,6.938,6.938,0,0,0-.43,2.4c-.047.81-.117,1.619-.224,2.425-.159,1.21-.449,2.414-.522,3.626-.111,1.822-.946,3.586-.726,5.429a.381.381,0,0,1-.033.2,25.52,25.52,0,0,0-.743,2.775,20.62,20.62,0,0,1-.606,2.58,5.611,5.611,0,0,0-.49,2.585,5.268,5.268,0,0,1-.63,3.176c-.149.222-.046.533-.1.8a4.421,4.421,0,0,1-.309,1.179,3.153,3.153,0,0,0-.314,1.389c-.019.744,0,1.488-.022,2.231a2.482,2.482,0,0,1-.105,1.205c-.737,1.256-.195,2.721-1.2,3.922-.088.1-.067.262-.091.4a59.706,59.706,0,0,1-1.688,6.544,7.237,7.237,0,0,0-.336,1.6,12.37,12.37,0,0,1-.962,3.776,7.649,7.649,0,0,0-.457,2.388c-.086,1.269.716,2.194,1.944,2.963a1.823,1.823,0,0,0,.575.073,3.591,3.591,0,0,1,.282-.97,3.873,3.873,0,0,1,.874-1,1.754,1.754,0,0,0,.75-1.653,3.332,3.332,0,0,1,.715-2.136,3.858,3.858,0,0,0,.961-2.694,1.348,1.348,0,0,1,.236-.78c.485-.864.587-1.851,1.494-2.583a1.287,1.287,0,0,0,.309-.552,16.638,16.638,0,0,0,1.155-2.9c.221-1.07.684-2.092.894-3.151a14.741,14.741,0,0,1,.611-1.969,9.088,9.088,0,0,0,.716-2.984,2.446,2.446,0,0,1,.243-.991,5.614,5.614,0,0,0,.485-2.393,1.533,1.533,0,0,1,.3-.97,8.59,8.59,0,0,1,1.945-2.177,2.093,2.093,0,0,0,.9-1.428,13.468,13.468,0,0,0,.244-3.032,4.522,4.522,0,0,1,.306-2,3.008,3.008,0,0,0,.24-1.4,3.476,3.476,0,0,1,.483-2.367,1.544,1.544,0,0,0,.2-.988,4.072,4.072,0,0,1,.569-2.567,1.647,1.647,0,0,0,.166-.994,3.906,3.906,0,0,1,.391-1.991,1.611,1.611,0,0,0,.1-1.194,2.508,2.508,0,0,1,.332-2.175,3.089,3.089,0,0,0,.5-1.954c0-.811-.018-1.622.027-2.432a3,3,0,0,1,.276-1.187,3.744,3.744,0,0,0,.361-1.79c-.008-.608.015-1.217.044-1.825a1.487,1.487,0,0,1,.65-1.292,1.552,1.552,0,0,0,.76-1.45c-.02-1.014-.014-2.028-.03-3.043a2.981,2.981,0,0,1,.29-1.591,2.969,2.969,0,0,0,.115-2.591,4.694,4.694,0,0,1-.148-2.8,3.929,3.929,0,0,0,.1-1.408,4.372,4.372,0,0,1,.1-1.81A3.934,3.934,0,0,0,171.609,153.131Z" style="fill: none"/>
          </clipPath>
          <clipPath id="clip-path-7" transform="translate(-16.703 -4.322)">
            <path id="letter-7" data-name="letter" d="M198.005,85.043c-2.139.4-3.942,1.373-6.072,1.7a9.575,9.575,0,0,1-2.339.42c-1.549.356-3.078.762-4.6,1.171a5.81,5.81,0,0,0-.916.416,8.6,8.6,0,0,1-1.379.616,18.623,18.623,0,0,0-1.929.719,36.5,36.5,0,0,1-5.155,1.738,23.311,23.311,0,0,0-3.479,1.092,9.2,9.2,0,0,1-3.374.586,10.786,10.786,0,0,1-3.675-.55c-.587-.206-1.108-.528-1.143-1.049a4.516,4.516,0,0,0-.668-1.949,1.8,1.8,0,0,1-.2-.98,18,18,0,0,1,.775-4.821c.216-.651.388-1.309.562-1.9-.679-1.351-.679-1.351.006-2.958-1.386-1.651-1.386-1.651-1.6-3.128l.115-.086-.089.122a4.42,4.42,0,0,0,1.852-1.43c.371-.54.793-1.061,1.2-1.586.452-.581,1-1.134.749-1.88a.444.444,0,0,1,.136-.381c.676-.722.6-1.705,1.467-2.356q1.138-2.056,2.276-4.114a4.818,4.818,0,0,1,1.631-2.735c.462-.5.861-1.023,1.287-1.537a14.357,14.357,0,0,0,1.5-.481c.169-.074.342-.409.262-.5a6.614,6.614,0,0,0-3.476-2.473c-.194.081-.427.17-.651.272-.3.137-.593.284-.841.4-.928-.265-1.758-.516-2.6-.738a1.292,1.292,0,0,0-1.443.664,3.109,3.109,0,0,0-.091.8c.025.467.1.933.161,1.456a12.953,12.953,0,0,0-1.361.635,9.235,9.235,0,0,0-1.342,1c-1.153,1.034-2.279,2.085-3.405,3.135a22.673,22.673,0,0,1-4.067,3.5,7.843,7.843,0,0,0-1.069.91,8.615,8.615,0,0,1-1.1.89c-3.037,1.822-5.422,4.147-8.347,6.055-.925.94-2.381,1.423-3.444,2.244a13.062,13.062,0,0,0-3.785,2.255,81.635,81.635,0,0,1-7.313,4.8c-2.559,1.5-4.851,3.23-7.514,4.629-.292.154-.517.377-.792.552a11.348,11.348,0,0,1-1.063.624,44.057,44.057,0,0,0-4.886,2.867,15.447,15.447,0,0,1-3.018,1.688,2.664,2.664,0,0,0-.881.455c-.825.822-2.134,1.219-3.017,2A12.242,12.242,0,0,1,108,98.99a.721.721,0,0,1-.741.044.709.709,0,0,1-.313-.52.987.987,0,0,1,.519-.9A1.932,1.932,0,0,0,108.5,96.48a4.888,4.888,0,0,1,1.344-1.972,1.626,1.626,0,0,0,.625-1.1A4.021,4.021,0,0,1,111.8,90.8a14.87,14.87,0,0,0,2.341-3.405c.375-.757.889-1.475,1.337-2.212a5.107,5.107,0,0,0,.991-2.886,7.824,7.824,0,0,1,.871-4.373,13.378,13.378,0,0,0,.563-1.354,1.138,1.138,0,0,0-.243-1.517.88.88,0,0,1-.27-.556,13.589,13.589,0,0,1-.14-1.821,1.192,1.192,0,0,1,.318-.752,1.526,1.526,0,0,0,.373-1.546,2.148,2.148,0,0,1,.141-1.785,2.45,2.45,0,0,0,.189-1.988A5.831,5.831,0,0,1,118,64.8a5.5,5.5,0,0,0-.707-2.763c-.308-.63-.618-1.26-.912-1.858-.708-.247-1.356-.436-1.635-1.033a3.194,3.194,0,0,0-.9-.991,23.6,23.6,0,0,1-2.77-2.484,4.542,4.542,0,0,0-1.574-1.094c-1.394-.621-2.751-1.3-4.211-1.819a12.286,12.286,0,0,0-3.57-.864,11.969,11.969,0,0,1-1.568-.282,9.633,9.633,0,0,0-1.308-.222c-.99-.044-1.992.023-2.972-.065a10.967,10.967,0,0,0-2.935-.006,3.818,3.818,0,0,1-1.318-.127,2.171,2.171,0,0,0-1.293.1,2.331,2.331,0,0,1-.776.138,23.975,23.975,0,0,0-4.789.47,8.518,8.518,0,0,1-1.072.1,27.962,27.962,0,0,1-4.517.453.919.919,0,0,0-.264.036c-1.8.408-3.612.8-5.4,1.238a3.775,3.775,0,0,1-1.285.229,5.645,5.645,0,0,0-2.618.348,2.894,2.894,0,0,1-1.051.132,8.508,8.508,0,0,0-2.352.38c-1.105.283-2.259.469-3.405.649A46.663,46.663,0,0,0,57.1,56.685c-3.273.946-6.614,1.783-9.729,3.018a3.582,3.582,0,0,1-1.544.3,8.71,8.71,0,0,0-2.363.337c-1.945.414-3.369,1.556-5.259,2.032-.157.04-.265.179-.4.265-.554.343-1.136.664-1.659,1.031a7.886,7.886,0,0,0-1.253,1.049c-.564.609-1.06,1.255-1.566,1.894a3.868,3.868,0,0,0-.462.727c-.579,1.2-1.141,2.4-1.71,3.609.293.525.536,1.035.856,1.517a1.649,1.649,0,0,0,2.258.41,7.638,7.638,0,0,0,.9-.451c.408-.258.781-.546,1.066-.747.347-.044.524-.084.7-.086a9.291,9.291,0,0,0,3.879-.72,3.59,3.59,0,0,1,1.565-.245,3.3,3.3,0,0,0,1.938-.6,5.35,5.35,0,0,1,1.577-.761c1.194-.316,2.286-.836,3.477-1.095a8.588,8.588,0,0,0,2.772-1.181,3.49,3.49,0,0,1,1.417-.536A11.179,11.179,0,0,0,55.585,66a10.8,10.8,0,0,0,1.983-.586,5.319,5.319,0,0,1,1.25-.37,57.018,57.018,0,0,0,5.913-1.413,2.414,2.414,0,0,1,.51-.129c2.056-.2,3.94-.91,5.991-1.127a2.384,2.384,0,0,0,1.012-.246,2.943,2.943,0,0,1,1.747-.312,23.641,23.641,0,0,0,2.665-.312c.528-.079,1.03-.273,1.559-.324.89-.085,1.806-.04,2.685-.157s1.708-.435,2.586-.534a11.68,11.68,0,0,0,3.175-.318,1.772,1.772,0,0,1,.8-.006,16.437,16.437,0,0,0,3.478,0,55.59,55.59,0,0,1,6.209-.2c1.17.044,2.345.027,3.517.011a25.649,25.649,0,0,1,3.487.27c1.593.193,3.094.688,4.727.736a1.448,1.448,0,0,1,1.58,1.168c.091.67.054,1.35.109,2.024a4.55,4.55,0,0,1-.664,2.763,9.5,9.5,0,0,0-1.017,2.511,9.79,9.79,0,0,1-1.308,3.073,2.868,2.868,0,0,0-.381,1.376,1.186,1.186,0,0,1-.339.746,5.4,5.4,0,0,0-1.289,1.988,6.211,6.211,0,0,1-1.926,2.644,1.552,1.552,0,0,0-.51.7,7.24,7.24,0,0,1-1.619,2.324c-.365.386-.785.744-1.13,1.139a1.984,1.984,0,0,0-.566.9,3.22,3.22,0,0,1-.981,1.64,5.985,5.985,0,0,0-.973,1.2,26.511,26.511,0,0,1-2.617,3.763,32.053,32.053,0,0,0-2.673,4.191,9.585,9.585,0,0,1-1.351,1.976,29.207,29.207,0,0,0-3.45,4.81,14.974,14.974,0,0,1-1.144,1.821c-.522.7-.707,1.538-1.242,2.227a25.306,25.306,0,0,0-1.761,2.273,13.466,13.466,0,0,0-.642,1.333,8.16,8.16,0,0,1-.347.763c-.59.985-1.242,1.951-1.792,2.949a15.162,15.162,0,0,1-5.9,5.436c-.07.041-.157.066-.233.1a.874.874,0,0,1-.929-.2c-.272-.286-.5-.623-.277-.94a2.914,2.914,0,0,0,.476-1.961,7.636,7.636,0,0,1,.187-1.813,1.815,1.815,0,0,0-.249-1.38,6.806,6.806,0,0,1-.553-.925,2.169,2.169,0,0,1,.133-2.354,2.6,2.6,0,0,0,.4-2.551,5.169,5.169,0,0,1,.018-3,1.442,1.442,0,0,0-.2-1.379,2.007,2.007,0,0,1-.27-1.949,6.844,6.844,0,0,1,.982-2.713,1.331,1.331,0,0,0,.267-.772,2.847,2.847,0,0,1,.556-1.549c.359-.546.511-1.157.815-1.708.439-.8.429-1.712,1.247-2.415.251-.215.231-.641.235-.971,0-.18-.178-.374-.323-.539a.645.645,0,0,0-.867.074c-.114.181-.215.366-.313.534a.933.933,0,0,1-.285.049,2.374,2.374,0,0,0-2.656.952,4.884,4.884,0,0,0-.75,1.075,6.184,6.184,0,0,1-1.376,2.178,1.894,1.894,0,0,0-.33.759,10.012,10.012,0,0,1-.3.982,12.442,12.442,0,0,0-1,3.349,4.163,4.163,0,0,1-.261.989c-.535,1.278-.71,2.645-1.679,3.817a.611.611,0,0,0-.119.391c0,.959-.779,1.789-.765,2.762a2.13,2.13,0,0,1-.508,1.143,7.94,7.94,0,0,0-.895,1.677c-.449,1.089-1.048,2.143-1.58,3.213a1.711,1.711,0,0,0-.238.576,4.392,4.392,0,0,1-.823,1.919,9.574,9.574,0,0,0-1.458,3.223,11.955,11.955,0,0,1-1.313,3.075,4.5,4.5,0,0,0-.6,2.364,1.672,1.672,0,0,1-.127,1,6.042,6.042,0,0,0-.588,2.166,10.243,10.243,0,0,1-.959,3.154,2.18,2.18,0,0,0-.328,1.586c.33,1.477-.177,2.971.186,4.444a3.677,3.677,0,0,0,.589,2.76,5.66,5.66,0,0,0,2.189,2.5c.579.3.97.8,1.522,1.141.61.375,1.4.113,2.1.217a5.717,5.717,0,0,1,.781.16c1.008.3,2.15.2,3.129.6a.887.887,0,0,0,.525.015,11.857,11.857,0,0,0,2.74-.793,16.767,16.767,0,0,1,3.569-1.363c.89-.322,1.758-.665,2.621-1.022a2.808,2.808,0,0,0,1.592-1.318,1.76,1.76,0,0,1,1.035-.9,5.258,5.258,0,0,0,2.038-1.307,33.566,33.566,0,0,1,5.078-3.906c1.349-.972,2.917-1.8,3.722-3.157a3.3,3.3,0,0,1,1.7-1.26,3.921,3.921,0,0,0,1.02-.643,16.242,16.242,0,0,1,4-2.661c.216-.091.322-.319.512-.459a15.94,15.94,0,0,1,2.338-1.661c.987-.491,1.8-1.119,2.758-1.627.294-.156.6-.3.908-.441a4.4,4.4,0,0,1,.482-.182c.56-.181.834-.513.83-.953,0-.755.439-1.239,1.325-1.618a10.2,10.2,0,0,0,2.1-1.255,14.439,14.439,0,0,1,1.875-1.144,21.6,21.6,0,0,0,2.881-1.816,19.7,19.7,0,0,1,2.226-1.47A31.078,31.078,0,0,0,118.29,112a21.73,21.73,0,0,1,2.94-1.776,5.939,5.939,0,0,0,.837-.5c1.478-1.086,2.933-2.191,4.422-3.268a17.846,17.846,0,0,1,2.047-1.31c.46-.246.831-.461.957-.909a2.176,2.176,0,0,1,1.228-1.284c.371-.186.679-.441,1.025-.656a18.772,18.772,0,0,1,3.406-1.985,2.347,2.347,0,0,0,.628-.381c1.227-.986,2.8-1.679,3.934-2.762a5.912,5.912,0,0,1,2.382-1.3,2.594,2.594,0,0,0,1.2-.783,16.585,16.585,0,0,1,3.627-2.98,7.146,7.146,0,0,0,2.618-2.54,1.49,1.49,0,0,1,.555-.669,3.466,3.466,0,0,0,1.3-1.264c.442-.588.914-1.163,1.406-1.727a.741.741,0,0,1,.487-.082.807.807,0,0,1,.428.2.567.567,0,0,1,.159.373,9.5,9.5,0,0,0,.56,4.01,4.123,4.123,0,0,1,.156,1.61c.021.744-.013,1.488.008,2.232a3.571,3.571,0,0,0,.151,1.2,24.478,24.478,0,0,0,2.6,4.657,2.363,2.363,0,0,0,.467.5,7.921,7.921,0,0,1,1.068,1.155,5.443,5.443,0,0,0,2.743,1.872,9.264,9.264,0,0,1,1.587.761,11.679,11.679,0,0,0,1.323.7,25.221,25.221,0,0,1,3.927,1.776,4.073,4.073,0,0,0,1.228.4,15.893,15.893,0,0,0,4,.361c1.365-.086,2.693-.231,3.573-1.166a1.636,1.636,0,0,1,.94-.352c1.14-.19,2.282-.379,3.406-.615a2.607,2.607,0,0,0,1.169-.472,17.1,17.1,0,0,1,2.724-1.623,18.454,18.454,0,0,0,2.2-1.491,21.052,21.052,0,0,1,2.252-1.43,6.309,6.309,0,0,0,1.632-1.6,8.94,8.94,0,0,0,1.574-2.785,9.864,9.864,0,0,1,.5-1.156c.236-.562.8-1.074.374-1.735-.093-.143.06-.387.134-.577.354-.9.7-1.81,1.088-2.7a3.794,3.794,0,0,1,1.257-1.541,8.937,8.937,0,0,0,1.142-1.125.851.851,0,0,0,.268-.952.857.857,0,0,1,.07-.784C198.089,85.358,198.385,85.159,198.005,85.043Z" style="fill: none"/>
          </clipPath>
        </defs>
        <title>signature</title>
        <g id="_7" data-name="7">
          <g style="clip-path: url(#clip-path)">
            <path class="c-font-focus__path c-font-focus__path-7" class="c-font-focus__path c-font-focus__path-7" id="path" d="M494.843,152.7s-6.8,17.934,6.554,21.234a18.579,18.579,0,0,0,11.227-.873c11.026-4.333,40.963-16.733,43.237-24.488" transform="translate(-16.703 -4.322)" style="fill: none;stroke: #fff;stroke-miterlimit: 10;stroke-width: 22px"/>
          </g>
        </g>
        <g id="_6" data-name="6">
          <g style="clip-path: url(#clip-path-2)">
            <path class="c-font-focus__path c-font-focus__path-6" id="path-2" data-name="path" d="M538.131,76.116s-13.46,18.221-18.057,67.14" transform="translate(-16.703 -4.322)" style="fill: none;stroke: #fff;stroke-miterlimit: 10;stroke-width: 22px"/>
          </g>
        </g>
        <g id="_5" data-name="5">
          <g style="clip-path: url(#clip-path-3)">
            <path class="c-font-focus__path c-font-focus__path-5" id="path-3" data-name="path" d="M497.749,77.114s-55.306,27.893-62.619,47.1l29.951-23.146s7.059,22.325,24.624,22.653" transform="translate(-16.703 -4.322)" style="fill: none;stroke: #fff;stroke-miterlimit: 10;stroke-width: 17px"/>
          </g>
        </g>
        <g id="_4" data-name="4">
          <g style="clip-path: url(#clip-path-4)">
            <path class="c-font-focus__path c-font-focus__path-4" id="path-4" data-name="path" d="M332.735,129.444s-16.068,13.4-16.5,27.281c0,0-.762,4.789,1.687,7.565,0,0,17.144-28.138,32.492-27.757,0,0,14.26-2.58,7.239,11.962,0,0-4.878,9.052-20.661,21.679" transform="translate(-16.703 -4.322)" style="fill: none;stroke: #fff;stroke-miterlimit: 10;stroke-width: 15px"/>
          </g>
        </g>
        <g id="_3" data-name="3">
          <g style="clip-path: url(#clip-path-5)">
            <path class="c-font-focus__path c-font-focus__path-3" id="path-5" data-name="path" d="M258.531,69.472S245.273,79,240.73,84.366c0,0-9.9,26.33,15.478,28.854,7.009.7,16.186-4.827,22.59-7.761,23.231-10.644,41.815-28.345,44.138-42.848,0,0,12.036,53.649,58.115,10.477" transform="translate(-16.703 -4.322)" style="fill: none;stroke: #fff;stroke-miterlimit: 10;stroke-width: 22px"/>
          </g>
        </g>
        <g id="_2" data-name="2">
          <g style="clip-path: url(#clip-path-6)">
            <path class="c-font-focus__path c-font-focus__path-2" id="path-6" data-name="path" d="M159.689,135.966a86.066,86.066,0,0,1,8.317,17.931c3.463,10.454-20.152,88.286-20.152,88.286" transform="translate(-16.703 -4.322)" style="fill: none;stroke: #fff;stroke-miterlimit: 10;stroke-width: 15px"/>
          </g>
        </g>
        <g id="_1" data-name="1">
          <g style="clip-path: url(#clip-path-7)">
            <path class="c-font-focus__path c-font-focus__path-1" id="path-7" data-name="path" d="M20.886,72.939s76.062-31.279,92.575-11.67c12.193,14.479-44.417,73.048-44.417,73.048S55.98,145.965,47.162,147.49,75.685,84.239,75.685,84.239s-11,44.09-6.641,50.078,75.533-45.894,104.184-81c-1.676-.141-49.7,72.217,27.563,36.8" transform="translate(-16.703 -4.322)" style="fill: none;stroke: #fff;stroke-miterlimit: 10;stroke-width: 22px"/>
          </g>
        </g>
</svg>
